<svg width="98" height="29" viewBox="0 0 98 29" fill="none" xmlns="http://www.w3.org/2000/svg">
<path d="M4.64 12.18C4.64 7.29247 4.64 4.84871 5.81297 3.09323C6.32076 2.33327 6.97327 1.68076 7.73323 1.17297C9.48871 0 11.9325 0 16.82 0C21.7075 0 24.1513 0 25.9068 1.17297C26.6667 1.68076 27.3192 2.33327 27.827 3.09323C29 4.84871 29 7.29247 29 12.18C29 17.0675 29 19.5113 27.827 21.2668C27.3192 22.0267 26.6667 22.6792 25.9068 23.187C24.1513 24.36 21.7075 24.36 16.82 24.36C11.9325 24.36 9.48871 24.36 7.73323 23.187C6.97327 22.6792 6.32076 22.0267 5.81297 21.2668C4.64 19.5113 4.64 17.0675 4.64 12.18Z" fill="#553B33"/>
<path d="M0 13.92C0 9.54537 0 7.35805 1.35902 5.99902C2.71805 4.64 4.90537 4.64 9.28 4.64H15.08C19.4546 4.64 21.6419 4.64 23.001 5.99902C24.36 7.35805 24.36 9.54537 24.36 13.92V19.72C24.36 24.0946 24.36 26.2819 23.001 27.641C21.6419 29 19.4546 29 15.08 29H9.28C4.90537 29 2.71805 29 1.35902 27.641C0 26.2819 0 24.0946 0 19.72V13.92Z" fill="#2F241F"/>
<path d="M41.9183 21.1701H37.1333V7.67188H41.9578C43.3156 7.67188 44.4844 7.9421 45.4642 8.48256C46.4441 9.01862 47.1976 9.78975 47.7249 10.796C48.2566 11.8022 48.5224 13.0061 48.5224 14.4078C48.5224 15.8138 48.2566 17.0222 47.7249 18.0328C47.1976 19.0434 46.4397 19.8189 45.451 20.3594C44.4668 20.8998 43.2892 21.1701 41.9183 21.1701ZM39.9872 18.7248H41.7997C42.6433 18.7248 43.3529 18.5754 43.9285 18.2766C44.5085 17.9735 44.9435 17.5055 45.2335 16.8728C45.5279 16.2357 45.6751 15.414 45.6751 14.4078C45.6751 13.4104 45.5279 12.5953 45.2335 11.9626C44.9435 11.3298 44.5107 10.8641 43.9351 10.5653C43.3595 10.2665 42.6499 10.1171 41.8063 10.1171H39.9872V18.7248Z" fill="#2F241F"/>
<path d="M54.4549 21.3678C53.4136 21.3678 52.5172 21.1569 51.7658 20.7351C51.0189 20.3088 50.4433 19.7069 50.039 18.9291C49.6348 18.147 49.4327 17.2221 49.4327 16.1544C49.4327 15.113 49.6348 14.1991 50.039 13.4126C50.4433 12.626 51.0123 12.0131 51.7461 11.5737C52.4843 11.1343 53.3499 10.9146 54.3429 10.9146C55.0108 10.9146 55.6325 11.0223 56.2081 11.2376C56.7881 11.4485 57.2934 11.767 57.724 12.1932C58.159 12.6195 58.4974 13.1555 58.739 13.8014C58.9807 14.4429 59.1015 15.1943 59.1015 16.0555V16.8266H50.5531V15.0866H56.4586C56.4586 14.6824 56.3707 14.3243 56.1949 14.0123C56.0192 13.7004 55.7753 13.4565 55.4633 13.2807C55.1558 13.1006 54.7977 13.0105 54.389 13.0105C53.9628 13.0105 53.5849 13.1094 53.2554 13.3071C52.9302 13.5004 52.6754 13.7619 52.4908 14.0914C52.3063 14.4166 52.2118 14.7791 52.2074 15.1789V16.8332C52.2074 17.3341 52.2997 17.767 52.4843 18.1316C52.6732 18.4963 52.939 18.7776 53.2818 18.9753C53.6245 19.173 54.0309 19.2719 54.5011 19.2719C54.813 19.2719 55.0986 19.2279 55.3579 19.1401C55.6171 19.0522 55.839 18.9204 56.0236 18.7446C56.2081 18.5688 56.3487 18.3535 56.4454 18.0987L59.0422 18.2701C58.9104 18.894 58.6402 19.4388 58.2315 19.9046C57.8273 20.366 57.3044 20.7263 56.6629 20.9855C56.0258 21.2404 55.2898 21.3678 54.4549 21.3678Z" fill="#2F241F"/>
<path d="M62.7355 18.2569L62.7421 14.8889H63.1507L66.3934 11.0464H69.6164L65.2598 16.1346H64.5941L62.7355 18.2569ZM60.1914 21.1701V7.67188H62.9991V21.1701H60.1914ZM66.5187 21.1701L63.5396 16.7607L65.4114 14.7769L69.8075 21.1701H66.5187Z" fill="#2F241F"/>
<path d="M74.4087 21.3678C73.3849 21.3678 72.4995 21.1503 71.7526 20.7153C71.01 20.2759 70.4366 19.6651 70.0324 18.883C69.6281 18.0965 69.426 17.1848 69.426 16.1478C69.426 15.102 69.6281 14.1881 70.0324 13.406C70.4366 12.6195 71.01 12.0087 71.7526 11.5737C72.4995 11.1343 73.3849 10.9146 74.4087 10.9146C75.4325 10.9146 76.3157 11.1343 77.0583 11.5737C77.8052 12.0087 78.3808 12.6195 78.7851 13.406C79.1893 14.1881 79.3914 15.102 79.3914 16.1478C79.3914 17.1848 79.1893 18.0965 78.7851 18.883C78.3808 19.6651 77.8052 20.2759 77.0583 20.7153C76.3157 21.1503 75.4325 21.3678 74.4087 21.3678ZM74.4219 19.1928C74.8877 19.1928 75.2765 19.061 75.5885 18.7973C75.9005 18.5293 76.1355 18.1646 76.2937 17.7032C76.4563 17.2419 76.5376 16.7168 76.5376 16.128C76.5376 15.5392 76.4563 15.0141 76.2937 14.5528C76.1355 14.0914 75.9005 13.7267 75.5885 13.4587C75.2765 13.1907 74.8877 13.0566 74.4219 13.0566C73.9517 13.0566 73.5563 13.1907 73.2355 13.4587C72.9192 13.7267 72.6797 14.0914 72.5171 14.5528C72.3589 15.0141 72.2799 15.5392 72.2799 16.128C72.2799 16.7168 72.3589 17.2419 72.5171 17.7032C72.6797 18.1646 72.9192 18.5293 73.2355 18.7973C73.5563 19.061 73.9517 19.1928 74.4219 19.1928Z" fill="#2F241F"/>
<path d="M85.0488 21.3678C84.025 21.3678 83.1397 21.1503 82.3927 20.7153C81.6501 20.2759 81.0767 19.6651 80.6725 18.883C80.2682 18.0965 80.0661 17.1848 80.0661 16.1478C80.0661 15.102 80.2682 14.1881 80.6725 13.406C81.0767 12.6195 81.6501 12.0087 82.3927 11.5737C83.1397 11.1343 84.025 10.9146 85.0488 10.9146C86.0726 10.9146 86.9558 11.1343 87.6984 11.5737C88.4453 12.0087 89.0209 12.6195 89.4252 13.406C89.8294 14.1881 90.0315 15.102 90.0315 16.1478C90.0315 17.1848 89.8294 18.0965 89.4252 18.883C89.0209 19.6651 88.4453 20.2759 87.6984 20.7153C86.9558 21.1503 86.0726 21.3678 85.0488 21.3678ZM85.062 19.1928C85.5278 19.1928 85.9166 19.061 86.2286 18.7973C86.5406 18.5293 86.7756 18.1646 86.9338 17.7032C87.0964 17.2419 87.1777 16.7168 87.1777 16.128C87.1777 15.5392 87.0964 15.0141 86.9338 14.5528C86.7756 14.0914 86.5406 13.7267 86.2286 13.4587C85.9166 13.1907 85.5278 13.0566 85.062 13.0566C84.5918 13.0566 84.1964 13.1907 83.8756 13.4587C83.5593 13.7267 83.3198 14.0914 83.1572 14.5528C82.999 15.0141 82.92 15.5392 82.92 16.128C82.92 16.7168 82.999 17.2419 83.1572 17.7032C83.3198 18.1646 83.5593 18.5293 83.8756 18.7973C84.1964 19.061 84.5918 19.1928 85.062 19.1928Z" fill="#2F241F"/>
<path d="M91.1148 21.1701V11.0464H93.8369V12.8128H93.9423C94.1269 12.1845 94.4366 11.7099 94.8716 11.3891C95.3066 11.064 95.8076 10.9014 96.3744 10.9014C96.515 10.9014 96.6666 10.9102 96.8291 10.9278C96.9917 10.9454 97.1345 10.9695 97.2576 11.0003V13.4916C97.1257 13.4521 96.9434 13.417 96.7105 13.3862C96.4776 13.3554 96.2645 13.3401 96.0712 13.3401C95.6582 13.3401 95.2891 13.4301 94.9639 13.6103C94.6432 13.786 94.3883 14.0321 94.1994 14.3485C94.0148 14.6648 93.9226 15.0295 93.9226 15.4426V21.1701H91.1148Z" fill="#2F241F"/>
</svg>
